<?xml version="1.0" encoding="utf-8"?>
<!-- Generator: Adobe Illustrator 22.1.0, SVG Export Plug-In . SVG Version: 6.00 Build 0)  -->
<svg version="1.1" id="图层_1" xmlns="http://www.w3.org/2000/svg" xmlns:xlink="http://www.w3.org/1999/xlink" x="0px" y="0px"
	 viewBox="0 0 128 85.4" style="enable-background:new 0 0 128 85.4;" xml:space="preserve">
<style type="text/css">
	.st0{fill:#F7F8F9;}
	.st1{fill:#F2F2F2;}
	.st2{fill:#C5CFD6;}
	.st3{fill:#FFFFFF;}
	.st4{fill:#DDE3E9;}
	.st5{fill:#FECAC3;}
	.st6{fill:#191847;}
	.st7{fill:#5C648C;}
	.st8{fill:#7780AA;}
	.st9{fill:#B7CDE6;}
	.st10{fill:#D1E2F5;}
	.st11{fill:#AFB9C5;}
	.st12{fill:#89C5CC;}
</style>
<path class="st0" d="M55.4,0c-2.5,0-5,0.6-7.2,2.1c-4.7,3.3-6.8,9.9-10.6,14.5c-3.5,4.3-8,6.3-12.5,8.6c-3.7,2-5.3,6.6-6,11.2
	c-0.5,3.6-0.7,7.4-2.3,10.6c-1.8,3.6-5,5.9-7.3,9.1C5.8,61.5,5,69.4,7.7,75.6c0.6,1.3,1.3,2.6,2.4,3.3c0.9,0.5,2,0.5,3,0.5h0.1
	l93.7,0c1,0,2.1,0,3-0.6c1.5-1,2-3.1,2.9-4.8c1.9-3.3,5.5-4.6,7.4-7.8c0.8-1.5,1.2-3.1,1.2-4.8v0c0-2.7-0.9-5.5-2.2-8
	c-0.4-0.8-0.9-1.5-1.4-2.3c-3-4.2-6.9-7.7-8.7-12.7c-2.4-6.7-0.4-14.7-2.5-21.6c-1.4-4.9-4.9-8.8-9.1-10.4C93.9,5.1,90,5.5,86.2,6
	c-2.6,0.3-5.2,0.6-7.7,0.4c-5.2-0.5-10-3.1-15-4.9C60.9,0.6,58.2,0,55.6,0L55.4,0L55.4,0z"/>
<path class="st1" d="M43.7,23.9h48.8c0.7,0,1,0.3,1,1v42.4c0,0.7-0.3,1-1,1H43.7c-0.7,0-1-0.3-1-1V24.9C42.7,24.3,43,23.9,43.7,23.9
	z"/>
<path class="st2" d="M43.7,23.9h48.8c0.6,0,1,0.5,1,1c0,0,0,0,0,0v2.4H42.7v-2.4C42.7,24.4,43.2,23.9,43.7,23.9L43.7,23.9z"/>
<path class="st1" d="M43.8,25.7c0,0.3,0.2,0.5,0.5,0.5c0.3,0,0.5-0.2,0.5-0.5s-0.2-0.5-0.5-0.5C44.1,25.2,43.8,25.4,43.8,25.7z"/>
<path class="st1" d="M45.4,25.7c0,0.3,0.2,0.5,0.5,0.5s0.5-0.2,0.5-0.5s-0.2-0.5-0.5-0.5S45.4,25.4,45.4,25.7z"/>
<path class="st1" d="M46.9,25.7c0,0.3,0.2,0.5,0.5,0.5s0.5-0.2,0.5-0.5s-0.2-0.5-0.5-0.5S46.9,25.4,46.9,25.7z"/>
<path class="st3" d="M45.3,29.9h45.5c0.3,0,0.5,0.2,0.5,0.5v34.5c0,0.3-0.2,0.5-0.5,0.5H45.3c-0.3,0-0.5-0.2-0.5-0.5V30.4
	C44.8,30.1,45,29.9,45.3,29.9z"/>
<path class="st4" d="M47.8,29.9h7.7v8.5l-3.8-2.2l-3.8,2.2V29.9z"/>
<path class="st4" d="M49.3,42.7h38.4c0.7,0,1.1,0.4,1.1,1.1l0,0c0,0.7-0.4,1.1-1.1,1.1H49.3c-0.7,0-1.1-0.4-1.1-1.1l0,0
	C48.2,43.1,48.6,42.7,49.3,42.7z"/>
<path class="st4" d="M49.3,49.1h38.4c0.7,0,1.1,0.4,1.1,1.1l0,0c0,0.7-0.4,1.1-1.1,1.1H49.3c-0.7,0-1.1-0.4-1.1-1.1l0,0
	C48.2,49.5,48.6,49.1,49.3,49.1z"/>
<path class="st4" d="M49.3,55.5h26.5c0.7,0,1.1,0.4,1.1,1.1l0,0c0,0.7-0.4,1.1-1.1,1.1H49.3c-0.7,0-1.1-0.4-1.1-1.1l0,0
	C48.2,55.9,48.6,55.5,49.3,55.5z"/>
<path class="st5" d="M35.9,48.1c-0.5-0.6-0.8-1.2-0.7-2c0.2-2.2,3.2-1.7,3.8-0.6c0.6,1.1,0.5,3.9-0.2,4.1c-0.3,0.1-1-0.1-1.6-0.5
	l0.4,3h-2.5L35.9,48.1z"/>
<path class="st6" d="M37.9,45.7c-0.3,0.2-0.6,0.5-0.9,1c-0.1,0-0.1,0-0.2,0c-0.3,0-0.6,0.3-0.6,0.6c0,0.2,0.1,0.3,0.2,0.4
	c-0.1,0.2-0.3,0.4-0.5,0.6c-0.7-0.4-1.2-1.6-0.5-2.8c0.6-2.3,3.8-0.9,4.4-1.3C39.9,45.1,39.4,45.8,37.9,45.7L37.9,45.7z"/>
<path class="st7" d="M34,60.6l3.7,13l2.7,9.5h2l-2.9-22.5H34z"/>
<path class="st8" d="M33,60.6c-0.1,6.7-0.4,10.3-0.5,10.9c-0.1,0.6-1.5,4.5-4.1,11.6h2c3.4-6.8,5.2-10.7,5.6-11.6
	c0.4-0.9,1.6-4.5,3.4-10.9H33z"/>
<path class="st6" d="M28.3,85l0.1-2.1h2.2c1,0.7,2.4,1.3,4,1.7V85h-3.9l-1.3-0.2V85H28.3z M40.2,85l0.1-2.1h2.2c1,0.7,2.4,1.3,4,1.7
	V85h-3.9l-1.3-0.2V85C41.2,85,40.2,85,40.2,85z"/>
<path class="st5" d="M42.8,58.3l3.9-0.7c0.8-0.6,1.5-1,2.1-1.2c0.2,0,0.5,0.1,0,0.6c-0.4,0.5-0.9,1-0.8,1.3c0.1,0.3,0.5,0.2,0.5,0.6
	c0,0.3-0.6,0.3-2,0.1l-3.2,1.7L42.8,58.3L42.8,58.3z M30.6,59.6l2.2,0c-2.4,7.3-3.6,11.1-3.7,11.4c-0.2,0.8,0.3,1.9,0.5,2.6
	c-0.7,0.4-0.6-1.1-1.4-0.6c-0.8,0.5-1.4,1.4-2.3,0.6c-0.1-0.1-0.2-0.4,0.1-0.7c0.7-0.7,1.8-1.9,1.9-2.3C28,70.1,28.9,66.4,30.6,59.6
	z"/>
<path class="st9" d="M36.5,50.2l1.7,0.2c0.4,5.1,2.7,8.4,7.7,7.3l0.7,6.6c-4.7,0.8-8.9-1.8-9.7-8.8C36.6,53.7,36.5,51.8,36.5,50.2z"
	/>
<path class="st10" d="M35.7,49.5l2.6,0.8c0,6,1.4,9.9,2.1,14.3h-6.9c-0.1,1.6-0.2,3.1-0.2,4.7h-5.2c1.2-8.5,3.6-15.1,7.4-19.8
	L35.7,49.5C35.7,49.5,35.7,49.5,35.7,49.5z"/>
<path class="st9" d="M34.5,56c-0.2,3.8-0.1,6.6,0.3,8.6h-1.4C33.6,61.6,34,58.7,34.5,56z"/>
<path class="st11" d="M78.1,51.4l-3.7-3.7c0.9-1.2,1.4-2.7,1.4-4.3c0-3.9-3.1-7.1-7-7.1c-3.9,0-7,3.2-7,7.1c0,3.9,3.1,7.1,7,7.1
	c1.2,0,2.4-0.3,3.5-1l3.8,3.8c0.5,0.5,1.4,0.6,2,0c0,0,0,0,0,0C78.7,52.8,78.7,51.9,78.1,51.4z M68.9,48.6c-2.8,0-5.1-2.3-5.1-5.2
	c0-2.9,2.3-5.2,5.1-5.2c2.8,0,5.1,2.3,5.1,5.2C74,46.3,71.7,48.6,68.9,48.6z"/>
<path class="st2" d="M81.5,54.6c1.5-0.1,3.3,0.8,3.4,2.4c0.1,1.2,0.1,2.3,0.3,3.4c0.1,0.9,0.4,1.8,0.8,2.6c0.4,0.8,1.2,1.5,1.4,2.3
	c0.1,0.5,0.1,1.3-0.1,1.9c-0.2,0.7-0.1,0.6,0.3,1.1c0.9,1.1,1.7,2.2,2.2,3.4c0.8,1.8,1.3,4,1,6c0,0.3-0.1,1.2-0.4,1.2
	c-0.4,0.1-0.2-0.5-0.2-0.6c0.1-1.1,0.3-2,0.1-3.1c-0.6-4.2-3.7-7-5.7-10.6c-0.1-0.2-0.3-0.6-0.5-0.9c-0.3-0.5-0.5-1.3-0.8-1.7
	c-0.6-0.6-0.1,0.7,0.1,0.9c0.2,0.3,0.3,0.6,0.5,0.9c0.7,1.3,1.6,2.7,2.3,4c-3.3,0.8-5.7-3.2-6.6-5.9C79,59.9,78.1,54.8,81.5,54.6"/>
<path class="st4" d="M101.1,50.6c-2.4,0.2-4,1.8-4.7,4c-0.4,1.2-0.4,2.5-0.7,3.7c-0.3,1.9-1,3.3-2.4,4.6c-0.4,0.4-0.7,0.8-1,1.3
	c-0.4,0.5-0.8,1-1.1,1.6c-0.4,0.8-0.5,1.8,0,2.6c0.1,0.2,0.4,0.6,0.7,0.8c-1.1,2.3-1.7,4.9-1.6,7.4c0,1.5,0.1,3.1,0.2,4.6
	c0,0.4,0.2,1.1,0.4,0.4c0.2-0.6,0-1.6-0.1-2.3c-0.1-3.2-0.2-6.1,1.1-9.1c0.1-0.3,0.3-0.6,0.4-0.9c0,0,0,0,0,0l0,0c0,0,0,0,0-0.1
	c0,0,0.1-0.1,0.1-0.2c0.1-0.2,0.3-0.4,0.3-0.5v0c0.8-1.3,1.8-2.6,2.7-3.8c0,0,1-1.4,0.9-0.6c-0.1,0.4-0.8,1.1-1.2,1.5
	c-0.7,0.9-1.5,2-2.2,3.1c-0.1,0.1-0.2,0.3-0.3,0.5c-0.1,0.1-0.1,0.2-0.1,0.3c2.4,0.8,4.2-0.8,5.5-2.6l0,0c0.4-0.5,0.8-1,1.3-1.4
	c0.8-0.7,1.7-0.8,2.7-1.1c2.6-0.9,3.8-4.3,4.1-6.8C106.4,54.7,104.5,50.3,101.1,50.6"/>
<path class="st4" d="M96.2,42.6c-2.5,2.6-3.7,6.2-4.7,9.6c-1.1,3.8-1.8,7.6-1.8,11.6c0,2.6-0.1,5.2,0.1,7.8c0.1,0.9,0.1,1.8,0.3,2.7
	c0,0.1,0.3,2.1,0.6,1.6c0.2-0.3-0.3-2.1-0.4-2.4c-0.2-1.7-0.3-3.5-0.3-5.2c0-2.9-0.1-5.7,0.2-8.5c0-0.4,0.1-0.9,0.2-1.3
	c0.1-0.4,0-0.2,0.3-0.4c0.3-0.2,0.8-0.1,1.1-0.4c1.4-0.8,2.1-3,2.7-4.4c0.6-1.6,1-3.4,1.3-5.1c0.2-1.3,0.4-2.5,0.5-3.8
	c0-0.4,0-0.8,0.1-1.2c0-0.1,0.1-0.3,0.1-0.4c0-0.2-0.1-0.3-0.1-0.5C96.4,42.4,96.3,42.5,96.2,42.6"/>
<path class="st12" d="M82.6,77.3c0,4.3,3.5,7.8,7.8,7.8s7.8-3.5,7.8-7.8C98.2,77.3,82.6,77.3,82.6,77.3z"/>
<path class="st2" d="M91,77.3h-0.4c0-0.5,0.1-1,0.2-1.5c0.3-2,1.4-4.8,3.6-5.1c0.1,0,0.4,0,0.8,0c0.2-0.1,0.4-0.2,0.6-0.2
	c1.9-0.1,4.1,1.4,5,3c0.7,1.3,0.6,3,0.2,4.4c-0.3,0.9-1,2.3-2.1,2.3c-1.4,0-1.5-1.7-1.5-2.7c0-1.4-0.2-2.5-1.3-3.5
	c-0.2-0.2-0.5-0.4-0.8-0.6c-0.4-0.3-0.8-0.7-0.9-1.2c-0.1-0.8,0.4-0.9,1-0.8c0.1,0,1.2,0.5,1.1,0.1c-0.1-0.1-0.2-0.2-0.5-0.3
	c-0.6-0.1-1.3-0.1-1.5-0.1c-2.2,0.5-3.1,3.6-3.3,5.6C91.1,76.9,91,77.1,91,77.3L91,77.3z"/>
</svg>
