<?xml version="1.0" encoding="utf-8"?>
<!-- Generator: Adobe Illustrator 22.1.0, SVG Export Plug-In . SVG Version: 6.00 Build 0)  -->
<svg version="1.1" id="图层_1" xmlns="http://www.w3.org/2000/svg" xmlns:xlink="http://www.w3.org/1999/xlink" x="0px" y="0px"
	 viewBox="0 0 128 128" style="enable-background:new 0 0 128 128;" xml:space="preserve">
<style type="text/css">
	.st0{fill:#E4EBF7;}
	.st1{fill:#FFFFFF;}
	.st2{fill:#FF603B;}
	.st3{fill:#FFB594;}
	.st4{fill:#FFC6A0;}
	.st5{fill:#520038;}
	.st6{fill:#552950;}
	.st7{fill:#CBD1D1;}
	.st8{fill:#2B0849;}
	.st9{fill:#A4AABA;}
	.st10{fill:#7BB2F9;}
	.st11{fill:#192064;}
	.st12{fill:#A3B4C6;}
	.st13{fill:#BFCDDD;}
	.st14{fill:#5BA02E;}
	.st15{fill:#92C110;}
	.st16{fill:#F2D7AD;}
</style>
<path class="st0" d="M8.7,55.9V55c0-30.3,24.5-54.8,54.8-54.8h0.9c30.3,0,54.8,24.5,54.8,54.8v0.9c0,30.3-24.5,54.8-54.8,54.8h-0.9
	C33.2,110.7,8.7,86.1,8.7,55.9"/>
<path class="st1" d="M26.1,57.6c-0.2,2-2,3.5-4,3.2c-2-0.2-3.5-2-3.2-4c0.2-2,2-3.4,4-3.2C24.9,53.8,26.3,55.6,26.1,57.6"/>
<path class="st1" d="M26.2,70.1c-0.1,1.4-1.3,2.4-2.7,2.2c-1.4-0.1-2.4-1.3-2.2-2.7c0,0,0,0,0,0c0.1-1.4,1.4-2.4,2.7-2.2
	C25.3,67.5,26.3,68.7,26.2,70.1 M33.9,63c-0.1,1.4-1.4,2.4-2.7,2.3c-1.4-0.1-2.4-1.4-2.3-2.7c0,0,0,0,0,0c0.1-1.4,1.4-2.4,2.7-2.2
	C33.1,60.4,34.1,61.7,33.9,63 M52.1,12l13.1,0c1.1,0,2-0.9,2-2c0-1.1-0.9-2-2-2l0,0l-13.1,0c-1.1,0-2,0.9-2,2.1
	C50.2,11.1,51.1,11.9,52.1,12 M57.1,20l13.1,0c1.1,0,2-0.9,2.1-2c0-1.1-0.9-2-2-2.1c0,0-0.1,0-0.1,0l-13.1,0c-1.1,0-2,0.9-2,2
	C55.1,19.1,56,20,57.1,20"/>
<path class="st1" d="M58.2,12L58.2,12l6.9,0c-1.1,0-2,0.9-2,2s0.9,2,2,2l-6.9,0v0c1.1,0,2-0.9,2-2.1C60.1,12.8,59.3,12,58.2,12
	 M74.1,30.6h-1.7c-1.1,0-2.1-0.9-2.1-2.1c0-1.1,0.9-2.1,2.1-2.1h1.7c1.1,0,2.1,0.9,2.1,2.1C76.2,29.6,75.3,30.5,74.1,30.6"/>
<path class="st2" d="M83.5,13.2c0-7.1,5.8-12.9,12.9-12.9s12.9,5.8,12.9,12.9c0,7.1-5.8,12.9-12.9,12.9S83.5,20.3,83.5,13.2"/>
<path class="st1" d="M97.4,8.5L97.1,15c0,0.4-0.3,0.6-0.7,0.6c-0.3,0-0.6-0.3-0.6-0.6l-0.3-6.6c0-0.5,0.4-1,0.9-1
	C97,7.5,97.4,7.9,97.4,8.5C97.4,8.4,97.4,8.4,97.4,8.5 M97.3,16.9c0.2,0.2,0.3,0.5,0.3,0.8s-0.1,0.6-0.3,0.8
	c-0.2,0.2-0.5,0.3-0.8,0.3c-0.3,0-0.6-0.1-0.8-0.3c-0.2-0.2-0.4-0.5-0.4-0.8c0-0.3,0.1-0.6,0.4-0.8c0.2-0.2,0.5-0.3,0.8-0.3
	C96.8,16.6,97.1,16.7,97.3,16.9"/>
<path class="st3" d="M60.7,58.1c1.9-0.3,1.6-0.5,1.8-2.1c0.3-2.3-1.4-7.4-3.6-10.9c-0.5-4.7-5.5-4.9-5.5-4.9s1.9,2.1,1.8,7.1
	c0.6,2.3,0.4,6.3,0.4,6.3S57.8,58.5,60.7,58.1"/>
<path class="st1" d="M52.7,39.9c0,0,0.6-0.3,1.4,0.3c3.5,0.6,4.5,2.9,4.9,5c0.8,0.6,0.8,1,0.8,1.5C60,47,60.5,48,60.5,48
	s-3.1,0.8-4.8,2.9C55.1,48.1,52.7,39.9,52.7,39.9"/>
<path class="st3" d="M49.7,39.4l0.4-2.5l-4-5.2l-2.3,2.4l-1.1,4.3C42.7,38.5,46.3,40.7,49.7,39.4"/>
<path class="st4" d="M44.8,34.1c0,0-2-1.3-1.1-3c0.7-1.4,2,0.5,2,0.5S46,30,47.1,30c0.2-0.5,0.7-1.8,0.7-1.8s5,1.1,5.9,1.4
	c0,2.3-1,8.5-3.4,8.7C46.4,38.5,44.8,34.1,44.8,34.1"/>
<path class="st5" d="M53.6,31.5c1.1-0.9,1.5-4.3,1.5-4.3S54,27,52.2,26.3c-2.1-0.9-5.6-2.1-7.7,0.4c-4.2,1.9-0.9,8.7-0.9,8.7
	l1.2-1.3c0,0-1.7-1.4-0.9-2.7c1-1.5,1.7,0.5,1.7,0.5s0.3-1,1.6-1.5c0.2-0.3,0.5-1.2,0.6-1.7c0.1-0.2,0.3-0.4,0.6-0.3
	c1.1,0.2,3.8,0.9,5,1.2c0.2,0.1,0.4,0.3,0.4,0.5C53.7,30.1,53.6,31.5,53.6,31.5z"/>
<path class="st6" d="M52.8,33.3c0,0.3-0.3,0.5-0.5,0.4c-0.2,0-0.4-0.3-0.3-0.5c0-0.3,0.3-0.5,0.5-0.4C52.7,32.8,52.9,33.1,52.8,33.3
	 M49.8,32.7c0,0.3-0.3,0.5-0.5,0.4c-0.2,0-0.4-0.3-0.3-0.5c0-0.3,0.3-0.5,0.5-0.4C49.7,32.2,49.8,32.5,49.8,32.7"/>
<path class="st1" d="M42.7,38.1c0,0,2.8,2.2,7.2,1.1c0,0,4.2,0.4,5,2.3c2.3,5.1,0.2,16.1,0,17.4c1.5,1.8-0.2,3.7-0.2,3.7
	c-6.8-1.5-15.6-0.3-15.6-0.3c-2.1-1.5-0.5-3.9-0.5-3.9l-2.7-10.4c-1.1-6.6,0.4-8.6,1.5-9c1.3-0.5,3.5-0.6,3.5-0.6
	c0.2,0,0.5,0,0.6-0.1C42.6,37.8,42.7,38.1,42.7,38.1"/>
<path class="st4" d="M37.4,39.1c0,0-3,0.2-3.3,3.6c-0.2,3.9,1.3,4.8,1.3,4.8s2.6,9.6,7.3,10c3.7-0.9,2.1-2.9,2-5
	c-0.1-4.9-3.1-7.4-3.1-7.4S39.8,39.1,37.4,39.1"/>
<path class="st4" d="M40,54.1c0,0,0.4,4.9,4.3,2.8c2.1-1.1,3.3-6,4.3-9.8c0.6-2.5,1.1-5.3,1.1-5.3l-2.2-0.7c0,0-1,2.4-3.4,5.4
	C42.2,48.8,40.1,51.3,40,54.1"/>
<path class="st4" d="M62.4,57.3c0,0-0.2,1.2-5.1,0.9c-6.6-0.4-11-1.4-11-1.4l0.4-2.5c0,0,0.3,0.1,4.2,0c5.2-0.2,8.2-2.6,10.9-0.4
	C63.5,55.2,62.4,57.3,62.4,57.3"/>
<path class="st1" d="M39.3,39.7c0,0-2.4-2.1-4.8,1.2c-1.4,3.1,0.2,6.7,1.2,8.5c-0.1,1.6,1,1.9,1,1.9s0,0.4,0.7,1.2
	c1.8-3.1,2.9-4,6-5.5c-0.1-0.3-0.8-1.4-0.8-1.6c0.1-0.7-0.6-1.1-0.6-1.1s-0.1-0.1-0.5-1.2C41.1,41.9,40.6,40.7,39.3,39.7"/>
<path class="st7" d="M48,125.5c0,0,2.1,1,3.6,0.5c1.4-0.5,2.2,0.3,3.5,0.6c1.3,0.3,3.4,0.5,5.8-0.6c-0.1-2.7-3.4-2-5.9-3.3
	c-1.3-0.7-1.9-2.3-1.8-4.3h-4.6C48.6,118.4,47.9,123.5,48,125.5"/>
<path class="st8" d="M48,125.5c0,0,1.2,0.6,3.3,0.3c1.5-0.2,1.4,0.3,3.2,0.6c1.8,0.3,5.7-0.1,6.2-0.5c0.2,0.5-0.2,1-0.2,1
	s-0.7,0.3-2.4,0.4c-1,0.1-3.5,0.1-4.4-0.3c-0.9-0.7-2.1-0.7-2.6-0.1c-1.9,0.5-3.1-0.1-3.1-0.1S48,125.5,48,125.5z"/>
<path class="st9" d="M51.6,118.7h1.5c0,0-0.1,3.3,2.2,4.2C53.1,123.2,51.1,121.7,51.6,118.7"/>
<path class="st7" d="M28.1,118.6c0,0-1,3.4-2,5.6c-0.8,1.7-1.9,3.4,2.5,3.4c3,0,4.1-0.2,3.4-3c-0.7-2.8,0.1-6,0.1-6
	S28.1,118.6,28.1,118.6z"/>
<path class="st8" d="M25.3,126.5c0,0,1,0.5,3,0.5c2.8,0,3.8-0.8,3.8-0.8s0.3,0.5-0.3,1c-0.5,0.4-1.6,0.7-3.4,0.7
	c-1.9,0-2.7-0.3-3.1-0.5C25,127.2,25,126.7,25.3,126.5"/>
<path class="st9" d="M28.5,119.4c0,0,0,0.7-0.1,1.3c-0.2,0.6-0.5,1.4-0.5,1.9c0,0.5,2.1,0.7,2.4,0c0.3-0.7,0.6-2.9,0.9-3.3
	C31.3,119,28.8,118.4,28.5,119.4"/>
<path class="st10" d="M47.7,121l6.1,0c0,0,0.6-24.7,0.8-29.2c0.3-4.5,1.7-19.6,0.5-28.6L49.4,63L39,63.3c0,0-0.2,1.8-0.5,4.5
	c0,0.2-0.3,0.4-0.3,0.6c0,0.3,0.2,0.6,0.1,0.9c-1.1,6.4-2.5,14.3-3.6,20.4c-0.1,0.3-0.6,0.5-0.7,1.2c0,0.1,0.1,0.7,0.1,0.8
	c-3.1,8.5-5.3,22.9-6.8,29.3l6.6,0c0,0,1-4.4,1.8-8.2C37,107,46.2,74.4,46.2,74.4l1.4-0.4l-0.1,21.2c0,0-0.1,0.6,0.2,0.9
	c0.3,0.4-0.3,0.5-0.2,1l0.2,0.8c0,0-0.2,3.3-0.4,5.4C47,105.4,47.7,121,47.7,121"/>
<path class="st11" d="M55,61.9c-1.3-0.2-8.2-1.2-15.8,0.1c-0.1,0-0.2,0.1-0.2,0.3c0,0.6,0,1,0,1.3c0,0.1,0.1,0.3,0.3,0.3
	c0,0,0,0,0.1,0c1.4-0.2,7.4-1.1,15.5-0.1c0.2,0,0.3-0.1,0.3-0.2c0-0.4,0.1-0.9,0.1-1.3C55.2,62.1,55.1,62,55,61.9"/>
<path class="st1" d="M50.7,63.3l0-2.2c0-0.2-0.2-0.4-0.4-0.4c-1.2,0-2.4,0-3.5,0c-0.2,0-0.4,0.2-0.4,0.4l0,2.2
	c0,0.2,0.2,0.4,0.4,0.4c1.1,0,2.3,0,3.5,0C50.5,63.7,50.7,63.5,50.7,63.3C50.7,63.3,50.7,63.3,50.7,63.3"/>
<path class="st11" d="M50.2,62.9l0-1.4c0-0.2-0.1-0.3-0.3-0.3c-0.9,0-1.8,0-2.7,0c-0.2,0-0.3,0.1-0.3,0.3l0,1.4
	c0,0.2,0.1,0.3,0.3,0.3c0.8,0,1.7,0,2.6,0C50.1,63.2,50.2,63.1,50.2,62.9"/>
<path class="st4" d="M48.8,37.9c0,0,2.4-0.4,3.3-2c0.6-0.2,0.3,1-0.1,1.6c-0.3,0.4-0.4,0.7-0.4,0.7s0.1,0.1,0.1,0.4
	c0,0.3-0.1,0.3-0.1,0.5c0,0.1,0,0.3,0,0.5c0,0.1-0.1,0.2-0.2,0.4c-0.1,0.1,0,0.3-0.1,0.4c-0.1,0.2-0.7,0.8-1.1,1.2
	c-1.7,1.5-2.2,0.7-2.6-0.2c-0.4-0.8-0.3-2.2-0.4-3c-0.2-1.3-1.1-1.3-0.8-1.9c0.1-0.3,1.3,0.3,1.4,0.8C48,38.1,48.9,38,48.8,37.9"/>
<path class="st4" d="M46.9,54.4c0,0-0.9-0.8-2.2-1.2c-1.3-0.3-1.6-0.1-2.4,0c-0.8,0.1-1.7-0.4-1.6,0.3c0.1,0.7,2.2,0.4,2.3,0.9
	c0.1,0.5-2.8,1.2-3.6,0.9c-0.3,0.3,0.2,0.8,0.9,0.9c0.1,0.7,1,0.7,1,0.7s0.3,0.4,1.2,0.5c1.1,0.6,3.9-0.3,4.8-0.7
	C48,56.4,46.9,54.4,46.9,54.4"/>
<path class="st12" d="M91.6,92.3h-0.7c-1,0-1.7-0.8-1.7-1.7v-14c0-1,0.8-1.7,1.7-1.7h0.7c1,0,1.7,0.8,1.7,1.7v14
	C93.3,91.5,92.5,92.3,91.6,92.3"/>
<path class="st12" d="M112.4,92.8c0,1.2-0.9,2.1-2.1,2.1H72.5c-1.2,0-2.1-0.9-2.1-2.1c0-1.2,0.9-2.1,2.1-2.1h37.8
	C111.4,90.7,112.4,91.7,112.4,92.8"/>
<path class="st12" d="M75.9,82.9h30.7V46H75.9V82.9z"/>
<path class="st13" d="M106.7,82.9h-31c-0.8,0-1.4-0.6-1.4-1.4v-8.3c0-0.8,0.6-1.4,1.4-1.4h31c0.8,0,1.4,0.6,1.4,1.4v8.3
	C108.1,82.2,107.5,82.9,106.7,82.9 M106.7,57h-31c-0.8,0-1.4-0.6-1.4-1.4v-8.3c0-0.8,0.6-1.4,1.4-1.4h31c0.8,0,1.4,0.6,1.4,1.4v8.3
	C108.1,56.4,107.5,57,106.7,57"/>
<path class="st1" d="M78.2,52.5c-0.6,0-1.1-0.4-1.1-1c0-0.6,0.4-1.1,1-1.1c0,0,0,0,0,0c0.6,0,1,0.5,1,1.1
	C79.3,52.1,78.8,52.5,78.2,52.5 M81.5,52.5c-0.6,0-1.1-0.4-1.1-1c0-0.6,0.4-1.1,1-1.1c0,0,0,0,0,0c0.6,0,1,0.5,1,1.1
	C82.5,52.1,82,52.5,81.5,52.5 M84.7,52.5c-0.6,0-1.1-0.4-1.1-1c0-0.6,0.4-1.1,1-1.1c0,0,0,0,0,0c0.6,0,1,0.5,1,1.1
	C85.7,52.1,85.3,52.5,84.7,52.5 M105.7,52.5h-9.8c-0.2,0-0.3-0.2-0.3-0.3v-1.4c0-0.2,0.2-0.4,0.3-0.4h9.8c0.2,0,0.3,0.2,0.3,0.4v1.4
	C106,52.4,105.9,52.5,105.7,52.5"/>
<path class="st13" d="M106.7,69.9h-31c-0.8,0-1.4-0.6-1.4-1.4v-8.3c0-0.8,0.6-1.4,1.4-1.4h31c0.8,0,1.4,0.6,1.4,1.4v8.3
	C108.1,69.3,107.5,69.9,106.7,69.9"/>
<path class="st1" d="M78.2,65.8c-0.6,0-1-0.5-1.1-1c0-0.6,0.5-1,1-1.1c0,0,0,0,0,0c0.6,0,1,0.5,1,1.1C79.3,65.4,78.8,65.8,78.2,65.8
	 M81.5,65.8c-0.6,0-1-0.5-1.1-1c0-0.6,0.5-1,1-1.1c0,0,0,0,0,0c0.6,0,1,0.5,1,1.1C82.5,65.4,82.1,65.8,81.5,65.8 M84.7,65.8
	c-0.6,0-1.1-0.5-1.1-1s0.5-1.1,1-1.1c0,0,0,0,0,0c0.6,0,1,0.5,1,1.1C85.8,65.4,85.3,65.8,84.7,65.8 M105.7,65.8h-9.8
	c-0.2,0-0.3-0.2-0.3-0.3v-1.4c0-0.2,0.2-0.3,0.3-0.3h9.8c0.2,0,0.3,0.2,0.3,0.3v1.4C106,65.7,105.9,65.8,105.7,65.8 M78.2,78.5
	c-0.6,0-1.1-0.4-1.1-1s0.4-1.1,1-1.1c0,0,0,0,0,0c0.6,0,1,0.5,1,1.1C79.3,78,78.8,78.4,78.2,78.5 M81.5,78.5c-0.6,0-1.1-0.4-1.1-1
	s0.4-1.1,1-1.1c0,0,0,0,0,0c0.6,0,1,0.5,1,1.1C82.5,78,82,78.4,81.5,78.5 M84.7,78.5c-0.6,0-1.1-0.4-1.1-1s0.4-1.1,1-1.1
	c0,0,0,0,0,0c0.6,0,1,0.5,1,1.1C85.7,78,85.3,78.4,84.7,78.5 M105.7,78.5h-9.8c-0.2,0-0.3-0.2-0.3-0.3v-1.4c0-0.2,0.2-0.3,0.3-0.3
	h9.8c0.2,0,0.3,0.2,0.3,0.3v1.4C106,78.3,105.9,78.5,105.7,78.5"/>
<path class="st13" d="M97.2,96.4H85.3c-0.6,0-1-0.5-1-1v-5c0-0.6,0.5-1,1-1h11.9c0.6,0,1,0.5,1,1v5C98.2,95.9,97.8,96.4,97.2,96.4"
	/>
<path class="st14" d="M79.7,116.8c-2.3,0-4.1-1.8-4.1-4.1c0,0,0,0,0,0v-6.5c0-2.3,1.9-4.1,4.1-4.1c2.2,0,4,1.8,4.1,4.1v6.5
	C83.8,114.9,82,116.8,79.7,116.8"/>
<path class="st15" d="M83.3,116.7c-2.3,0-4.1-1.8-4.1-4.1c0,0,0,0,0,0v-1.5c0-2.3,1.9-4.1,4.1-4.1c2.2,0,4,1.8,4.1,4.1v1.5
	C87.4,114.9,85.6,116.7,83.3,116.7"/>
<path class="st16" d="M87.7,128H75.6c-0.8,0-1.4-0.6-1.4-1.4c0,0,0,0,0,0v-9c0-0.8,0.6-1.4,1.4-1.4c0,0,0,0,0,0h12.1
	c0.8,0,1.4,0.6,1.4,1.4c0,0,0,0,0,0v9C89.1,127.4,88.5,128,87.7,128L87.7,128"/>
</svg>
